<svg width="40" height="40" viewBox="0 0 40 40" fill="none" xmlns="http://www.w3.org/2000/svg">
<path d="M20 10.7408C11.7125 10.7408 5 17.4533 5 25.7408C4.9983 28.8898 5.98822 31.9593 7.82933 34.5139C9.67043 37.0685 12.2692 38.9784 15.257 39.9728C16.007 40.1033 16.2875 39.6533 16.2875 39.2588C16.2875 38.9033 16.268 37.7228 16.268 36.4658C12.5 37.1603 11.525 35.5478 11.225 34.7033C11.0555 34.2713 10.325 32.9408 9.6875 32.5838C9.1625 32.3033 8.4125 31.6088 9.668 31.5908C10.85 31.5713 11.693 32.6783 11.975 33.1283C13.325 35.3963 15.482 34.7588 16.343 34.3658C16.475 33.3908 16.868 32.7353 17.3 32.3603C13.9625 31.9853 10.475 30.6908 10.475 24.9533C10.475 23.3213 11.0555 21.9728 12.0125 20.9213C11.8625 20.5463 11.3375 19.0088 12.1625 16.9463C12.1625 16.9463 13.418 16.5533 16.2875 18.4853C17.5086 18.1464 18.7703 17.9759 20.0375 17.9783C21.3125 17.9783 22.5875 18.1463 23.7875 18.4838C26.6555 16.5338 27.9125 16.9478 27.9125 16.9478C28.7375 19.0103 28.2125 20.5478 28.0625 20.9228C29.018 21.9728 29.6 23.3033 29.6 24.9533C29.6 30.7103 26.0945 31.9853 22.757 32.3603C23.3 32.8283 23.7695 33.7283 23.7695 35.1353C23.7695 37.1408 23.75 38.7533 23.75 39.2603C23.75 39.6533 24.032 40.1213 24.782 39.9713C27.7595 38.966 30.3469 37.0523 32.1799 34.4996C34.0128 31.9468 34.9991 28.8835 35 25.7408C35 17.4533 28.2875 10.7408 20 10.7408Z" fill="#FFFCF3"/>
</svg>
