<svg width="89" height="41" viewBox="0 0 89 41" fill="none" xmlns="http://www.w3.org/2000/svg">
<path d="M0.425293 14.86C0.54196 14.8833 0.64696 14.895 0.740293 14.895H1.05529C1.47529 14.895 1.87196 14.8367 2.24529 14.72C2.64196 14.6033 3.00363 14.4167 3.33029 14.16L3.40029 14.055C2.88696 12.9583 2.39696 11.8733 1.93029 10.8C1.48696 9.72667 1.26529 8.56 1.26529 7.3C1.26529 6.22667 1.44029 5.25833 1.79029 4.395C2.16363 3.50833 2.66529 2.76167 3.29529 2.155C3.94863 1.525 4.71863 1.04667 5.60529 0.719999C6.51529 0.393332 7.50696 0.229999 8.58029 0.229999L8.51029 0.404999C8.53363 0.498332 8.55696 0.603332 8.58029 0.719999C8.62696 0.836666 8.65029 0.929999 8.65029 1C8.65029 1.11667 8.55696 1.22167 8.37029 1.315C8.20696 1.40833 8.00863 1.49 7.77529 1.56C7.54196 1.60666 7.30863 1.65333 7.07529 1.7C6.84196 1.74666 6.67863 1.78167 6.58529 1.805L6.69029 2.155C6.78363 2.155 6.87696 2.155 6.97029 2.155C7.06363 2.13167 7.15696 2.12 7.25029 2.12C7.71696 2.12 8.17196 2.19 8.61529 2.33C9.05863 2.47 9.37363 2.75 9.56029 3.17C9.53696 3.42666 9.31529 3.625 8.89529 3.765C8.47529 3.905 8.02029 4.10333 7.53029 4.36C7.04029 4.59333 6.58529 4.94333 6.16529 5.41C5.76863 5.87667 5.57029 6.57667 5.57029 7.51C5.57029 8.25667 5.68696 8.89833 5.92029 9.435C6.15363 9.94833 6.39863 10.4383 6.65529 10.905C6.93529 11.3717 7.19196 11.85 7.42529 12.34C7.65863 12.83 7.77529 13.4133 7.77529 14.09C7.77529 14.44 7.69363 14.755 7.53029 15.035C7.39029 15.315 7.20363 15.5717 6.97029 15.805C6.73696 16.0383 6.46863 16.2367 6.16529 16.4C5.88529 16.5633 5.61696 16.7033 5.36029 16.82C5.38363 16.9133 5.43029 17.0067 5.50029 17.1C5.57029 17.17 5.64029 17.275 5.71029 17.415C5.78029 17.555 5.83863 17.7417 5.88529 17.975C5.95529 18.185 5.99029 18.4883 5.99029 18.885C5.99029 19.445 5.95529 20.005 5.88529 20.565C5.83863 21.1017 5.81529 21.65 5.81529 22.21C5.81529 22.8167 5.89696 23.4583 6.06029 24.135C6.22363 24.7883 6.48029 25.395 6.83029 25.955C7.18029 26.515 7.61196 26.9817 8.12529 27.355C8.66196 27.705 9.29196 27.88 10.0153 27.88H10.2253C10.3653 27.88 10.482 27.9033 10.5753 27.95C10.6686 27.9967 10.7153 28.125 10.7153 28.335L10.6803 28.475C9.56029 28.475 8.52196 28.1483 7.56529 27.495C6.67863 26.8883 6.00196 26.1183 5.53529 25.185C5.95529 26.165 6.60863 26.97 7.49529 27.6C8.45196 28.2533 9.49029 28.615 10.6103 28.685L10.5053 29.14C10.5986 29.1633 10.6803 29.1867 10.7503 29.21C10.8436 29.2333 10.937 29.245 11.0303 29.245C11.1703 29.245 11.322 29.2333 11.4853 29.21C11.6486 29.1867 11.812 29.175 11.9753 29.175C12.1853 29.175 12.372 29.21 12.5353 29.28C12.6986 29.35 12.8386 29.5133 12.9553 29.77C12.9553 30.0967 12.8036 30.365 12.5003 30.575C12.2203 30.8083 11.952 30.9833 11.6953 31.1C10.5286 31.1 9.39696 30.9017 8.30029 30.505C7.20363 30.1317 6.23529 29.595 5.39529 28.895C4.55529 28.1717 3.87863 27.3083 3.36529 26.305C2.87529 25.2783 2.63029 24.1467 2.63029 22.91C2.63029 22.3267 2.66529 21.755 2.73529 21.195C2.82863 20.635 2.87529 20.0633 2.87529 19.48C2.87529 19.4333 2.85196 19.3517 2.80529 19.235C2.78196 19.1417 2.75863 19.0483 2.73529 18.955C2.73529 19.6317 2.70029 20.3083 2.63029 20.985C2.58363 21.6617 2.56029 22.315 2.56029 22.945C2.56029 24.065 2.79363 25.1383 3.26029 26.165C3.72696 27.1683 4.34529 28.055 5.11529 28.825C5.88529 29.5717 6.77196 30.1783 7.77529 30.645C8.80196 31.1117 9.87529 31.3567 10.9953 31.38C10.7386 31.4967 10.4703 31.5667 10.1903 31.59C9.93363 31.6133 9.66529 31.625 9.38529 31.625C8.59196 31.625 7.83363 31.45 7.11029 31.1C6.38696 30.7733 5.72196 30.3417 5.11529 29.805C4.50863 29.2683 3.97196 28.6617 3.50529 27.985C3.06196 27.3083 2.71196 26.62 2.45529 25.92L2.80529 25.78C2.61863 25.36 2.44363 24.9167 2.28029 24.45C2.14029 23.9833 2.07029 23.5167 2.07029 23.05C2.07029 22.35 2.09363 21.65 2.14029 20.95C2.21029 20.2267 2.24529 19.515 2.24529 18.815L1.96529 19.725C1.96529 19.3517 1.90696 19.025 1.79029 18.745C1.69696 18.465 1.45196 18.325 1.05529 18.325H0.670293L0.425293 14.86ZM1.75529 22.21C1.75529 22.0933 1.75529 21.9767 1.75529 21.86C1.77863 21.72 1.80196 21.5917 1.82529 21.475V22C1.82529 22.6067 1.84863 23.2133 1.89529 23.82C1.96529 24.4033 2.08196 24.9633 2.24529 25.5C2.03529 24.9867 1.89529 24.45 1.82529 23.89C1.77863 23.33 1.75529 22.77 1.75529 22.21ZM3.57529 14.055C3.48196 14.2417 3.31863 14.37 3.08529 14.44L3.47029 14.58L3.61029 14.475L3.75029 14.125L3.57529 14.055ZM5.32529 18.92C5.32529 19.13 5.31363 19.34 5.29029 19.55C5.29029 19.7367 5.27863 19.9233 5.25529 20.11C5.32529 19.62 5.36029 19.1183 5.36029 18.605C5.36029 18.4883 5.33696 18.36 5.29029 18.22C5.31363 18.3133 5.32529 18.4183 5.32529 18.535V18.92ZM31.7437 27.32C31.7437 26.55 31.6854 25.7683 31.5687 24.975C31.4754 24.1817 31.4287 23.4117 31.4287 22.665V21.72C31.3121 20.81 31.1721 19.7483 31.0087 18.535C30.8454 17.2983 30.6354 16.1317 30.3787 15.035C30.1221 13.9383 29.8071 13.005 29.4337 12.235C29.0604 11.465 28.5937 11.08 28.0337 11.08C27.2171 11.08 26.3771 11.465 25.5137 12.235C24.6504 12.9817 23.9271 14.0783 23.3437 15.525C23.0637 16.3417 22.8654 17.205 22.7487 18.115C22.6554 19.025 22.5737 19.9817 22.5037 20.985C22.4337 21.9883 22.3637 23.0267 22.2937 24.1C22.2471 25.15 22.1421 26.2467 21.9787 27.39C21.9321 27.5067 21.8854 27.6467 21.8387 27.81C21.8154 27.9733 21.7921 28.1133 21.7687 28.23H17.4637V25.395C17.4404 25.1617 17.4171 24.8817 17.3937 24.555C17.3704 24.2283 17.3354 23.9017 17.2887 23.575C17.2654 23.225 17.2421 22.8867 17.2187 22.56C17.1954 22.2333 17.1721 21.9533 17.1487 21.72C17.1487 19.83 17.0671 17.94 16.9037 16.05C16.7637 14.16 16.6704 12.235 16.6237 10.275L17.4287 10.1C17.4987 10.1 17.5687 10.17 17.6387 10.31C17.7321 10.4267 17.8021 10.66 17.8487 11.01C17.9187 11.36 17.9771 11.8617 18.0237 12.515C18.0937 13.145 18.1521 13.9733 18.1987 15C18.2221 15 18.2571 14.9883 18.3037 14.965C18.3971 14.9183 18.4671 14.895 18.5137 14.895C18.5137 14.7317 18.5021 14.5683 18.4787 14.405C18.4787 14.2417 18.4787 14.0783 18.4787 13.915C18.4787 11.9083 18.6071 10.3683 18.8637 9.295C19.1437 8.19833 19.3771 7.65 19.5637 7.65C19.7037 7.65 19.8437 7.95333 19.9837 8.56C20.1237 9.16667 20.2754 10.1233 20.4387 11.43C20.8354 10.8 21.2904 10.1933 21.8037 9.61C22.3171 9.02667 22.8887 8.525 23.5187 8.105C24.1721 7.66167 24.8721 7.31166 25.6187 7.055C26.3654 6.79833 27.1821 6.67 28.0687 6.67C28.8387 6.67 29.5154 6.83333 30.0987 7.16C30.6821 7.48667 31.1954 7.91833 31.6387 8.455C32.1054 8.96833 32.4904 9.56333 32.7937 10.24C33.1204 10.8933 33.4004 11.5583 33.6337 12.235C33.8671 12.8883 34.0537 13.53 34.1937 14.16C34.3571 14.7667 34.4971 15.28 34.6137 15.7C34.6137 15.7467 34.6254 15.805 34.6487 15.875C34.6721 15.9217 34.6954 15.9683 34.7187 16.015C34.9987 15.2683 35.3487 14.4167 35.7687 13.46C36.1887 12.48 36.7137 11.5583 37.3437 10.695C37.9737 9.83167 38.7087 9.10833 39.5487 8.525C40.4121 7.91833 41.4037 7.615 42.5237 7.615C43.6204 7.615 44.5537 7.90667 45.3237 8.49C46.0937 9.07333 46.7354 9.82 47.2487 10.73C47.7854 11.64 48.2054 12.655 48.5087 13.775C48.8354 14.8717 49.0804 15.9567 49.2437 17.03C49.4071 18.08 49.5121 19.0483 49.5587 19.935C49.6054 20.8217 49.6287 21.4983 49.6287 21.965C49.6287 22.7117 49.5937 23.26 49.5237 23.61C49.4771 23.96 49.3254 24.135 49.0687 24.135C49.0221 23.2017 48.9754 22.2567 48.9287 21.3C48.9054 20.3433 48.8354 19.3867 48.7187 18.43C48.6254 17.45 48.4854 16.4933 48.2987 15.56C48.1121 14.65 47.8671 13.7517 47.5637 12.865C48.1471 14.7083 48.4854 16.5517 48.5787 18.395C48.6954 20.2617 48.7887 22.105 48.8587 23.925C48.6954 23.7617 48.5671 23.68 48.4737 23.68C48.4037 23.68 48.3571 23.7267 48.3337 23.82V24.87C48.3337 25.1733 48.3337 25.4883 48.3337 25.815C48.3571 26.1417 48.3921 26.4217 48.4387 26.655C48.3921 27.6117 48.3454 28.3 48.2987 28.72C48.2754 29.1167 48.1937 29.3733 48.0537 29.49C47.8671 29.49 47.7037 29.385 47.5637 29.175C47.4237 28.965 47.2837 28.6967 47.1437 28.37C47.0271 28.0433 46.9104 27.6817 46.7937 27.285C46.6771 26.8883 46.5604 26.5033 46.4437 26.13V25.185C46.4437 24.1583 46.4321 23.085 46.4087 21.965C46.4087 20.845 46.3621 19.76 46.2687 18.71C46.1987 17.6367 46.0704 16.6217 45.8837 15.665C45.7204 14.7083 45.4871 13.8683 45.1837 13.145C44.9037 12.3983 44.5304 11.815 44.0637 11.395C43.6204 10.975 43.0721 10.765 42.4187 10.765C41.8821 10.765 41.3921 10.905 40.9487 11.185C40.6921 11.3483 40.4354 11.5583 40.1787 11.815C40.4354 11.5817 40.7037 11.3833 40.9837 11.22C41.4271 10.94 41.9054 10.8 42.4187 10.8H42.5587C43.1421 10.8 43.6321 11.0333 44.0287 11.5C44.4487 11.9433 44.7871 12.5383 45.0437 13.285C45.3237 14.0317 45.5337 14.8833 45.6737 15.84C45.8137 16.7967 45.9187 17.7883 45.9887 18.815C46.0821 19.8417 46.1404 20.8683 46.1637 21.895C46.1871 22.8983 46.2104 23.82 46.2337 24.66C46.0937 24.0067 45.9654 23.2367 45.8487 22.35C45.7554 21.44 45.6504 20.495 45.5337 19.515C45.4404 18.535 45.3121 17.5667 45.1487 16.61C45.0087 15.6533 44.8221 14.8017 44.5887 14.055C44.3554 13.285 44.0637 12.6667 43.7137 12.2C43.3637 11.7333 42.9321 11.5 42.4187 11.5C42.2087 11.5 42.0221 11.5233 41.8587 11.57C41.6954 11.5933 41.4854 11.71 41.2287 11.92L40.8787 11.745C40.0854 12.445 39.4204 13.3783 38.8837 14.545C38.3471 15.7117 37.8921 16.9717 37.5187 18.325C37.1454 19.655 36.8304 21.02 36.5737 22.42C36.3171 23.82 36.0721 25.115 35.8387 26.305V27.635C36.2121 25.7917 36.5504 23.9833 36.8537 22.21C37.1804 20.4133 37.6471 18.675 38.2537 16.995C37.7871 18.4417 37.4254 19.935 37.1687 21.475C36.9121 23.015 36.6204 24.59 36.2937 26.2C36.2937 26.3633 36.2587 26.585 36.1887 26.865C36.1187 27.145 36.0021 27.565 35.8387 28.125L31.9887 27.74L31.7437 27.32ZM32.1287 25.57C32.0587 24.94 31.9887 24.135 31.9187 23.155C31.8721 22.175 31.8021 21.1367 31.7087 20.04C31.6154 18.9433 31.4871 17.835 31.3237 16.715C31.1604 15.595 30.9271 14.5917 30.6237 13.705C30.3437 12.795 29.9821 12.06 29.5387 11.5C29.1187 10.94 28.5821 10.66 27.9287 10.66C27.7187 10.66 27.4971 10.7067 27.2637 10.8C27.0304 10.8933 26.8087 10.9983 26.5987 11.115C26.6687 11.0917 26.7271 11.08 26.7737 11.08H26.8087C26.8087 11.1033 26.7737 11.15 26.7037 11.22C27.3337 11.01 27.8237 10.905 28.1737 10.905C28.6171 11.0683 29.0137 11.43 29.3637 11.99C29.7137 12.55 30.0054 13.2267 30.2387 14.02C30.4954 14.79 30.7054 15.63 30.8687 16.54C31.0554 17.45 31.1954 18.325 31.2887 19.165C31.3821 19.9817 31.4521 20.7167 31.4987 21.37C31.5454 22.0233 31.5687 22.49 31.5687 22.77C31.6387 23.47 31.6971 24.1583 31.7437 24.835C31.8137 25.5117 31.8487 26.1883 31.8487 26.865L32.1287 25.57ZM35.0687 16.155C35.0687 16.1783 35.0921 16.2833 35.1387 16.47C35.1854 16.6333 35.2204 16.7383 35.2437 16.785C35.3137 16.5517 35.4654 16.1783 35.6987 15.665C35.9321 15.1283 36.1887 14.5683 36.4687 13.985C36.7487 13.3783 37.0171 12.8183 37.2737 12.305C37.3671 12.095 37.4487 11.9083 37.5187 11.745C37.4487 11.885 37.3554 12.0367 37.2387 12.2C36.9821 12.6667 36.7021 13.1567 36.3987 13.67C36.0954 14.16 35.8154 14.6383 35.5587 15.105C35.3021 15.5717 35.1387 15.9217 35.0687 16.155ZM37.8337 15.735C37.3671 16.925 36.9587 18.185 36.6087 19.515C36.2587 20.8217 35.9437 22.175 35.6637 23.575L35.7337 24.135C36.0371 22.455 36.3871 20.7633 36.7837 19.06C37.1571 17.5667 37.6354 16.155 38.2187 14.825C38.1954 14.895 38.1721 14.9533 38.1487 15C38.0321 15.2333 37.9271 15.4783 37.8337 15.735ZM32.1287 20.495C32.1754 20.8683 32.1987 21.23 32.1987 21.58C32.2221 21.93 32.2454 22.2567 32.2687 22.56L32.3737 24.24L32.4087 24.065C32.3854 23.7383 32.3737 23.4233 32.3737 23.12V22.245L32.1287 20.495ZM43.6087 8.49C43.1887 8.37333 42.7921 8.315 42.4187 8.315H42.0337C41.8704 8.315 41.7887 8.32667 41.7887 8.35H41.8237C42.1971 8.44333 42.5471 8.49 42.8737 8.49H43.6087ZM38.4287 16.505C38.5454 16.1783 38.6504 15.8633 38.7437 15.56C38.8604 15.2567 38.9537 15.0467 39.0237 14.93C39.0237 14.9767 39.0004 15.07 38.9537 15.21C38.9071 15.3733 38.8137 15.6183 38.6737 15.945L38.4287 16.505ZM46.0237 9.96C45.9071 9.82 45.7554 9.68 45.5687 9.54C45.4287 9.44667 45.3004 9.365 45.1837 9.295C45.4637 9.48167 45.7437 9.70333 46.0237 9.96ZM37.6937 11.43C37.6471 11.4767 37.6121 11.5467 37.5887 11.64C37.6354 11.57 37.6704 11.5 37.6937 11.43ZM68.6499 16.68V16.61L67.7399 16.33L68.3349 15.315L72.4299 16.575C72.4299 17.345 72.4649 18.1383 72.5349 18.955C72.6282 19.7483 72.7215 20.565 72.8149 21.405C72.9315 22.245 73.0249 23.1083 73.0949 23.995C73.1882 24.8583 73.2349 25.7333 73.2349 26.62C73.2349 27.81 73.1299 29.0117 72.9199 30.225C72.7099 31.4383 72.3599 32.5933 71.8699 33.69C71.4032 34.7867 70.7732 35.8017 69.9799 36.735C69.2099 37.6683 68.2415 38.4383 67.0749 39.045C66.4449 39.465 65.6282 39.85 64.6249 40.2C63.6449 40.5733 62.6765 40.7833 61.7199 40.83H61.2999C60.3665 40.83 59.5849 40.725 58.9549 40.515C58.3249 40.3283 57.8232 40.1067 57.4499 39.85C57.0765 39.6167 56.8082 39.3833 56.6449 39.15C56.5049 38.94 56.4349 38.8117 56.4349 38.765C56.4349 38.6717 56.4815 38.625 56.5749 38.625C57.2982 39.1617 58.0799 39.5467 58.9199 39.78C59.7599 40.0133 60.5999 40.13 61.4399 40.13C62.8632 40.13 64.1815 39.85 65.3949 39.29C66.5615 38.73 67.6115 38.03 68.5449 37.19C67.6115 38.0067 66.5499 38.6833 65.3599 39.22C64.1465 39.7567 62.8515 40.025 61.4749 40.025C60.6582 40.025 59.8532 39.9083 59.0599 39.675C58.2899 39.4417 57.5665 39.0567 56.8899 38.52C56.9599 38.52 57.0415 38.4967 57.1349 38.45C57.2282 38.4267 57.2749 38.3683 57.2749 38.275L56.9949 38.03C56.8315 37.8667 56.6332 37.6567 56.3999 37.4C56.1899 37.1433 55.9915 36.84 55.8049 36.49C55.6415 36.14 55.5599 35.7667 55.5599 35.37C55.5599 34.9733 55.7115 34.775 56.0149 34.775C56.2482 34.775 56.5165 34.9267 56.8199 35.23C57.1232 35.5333 57.4849 35.86 57.9049 36.21C58.3249 36.5833 58.8265 36.9217 59.4099 37.225C60.0165 37.5283 60.7282 37.68 61.5449 37.68C62.7115 37.68 63.7615 37.4467 64.6949 36.98C65.6282 36.5367 66.4449 35.9183 67.1449 35.125C66.4682 35.8717 65.6749 36.455 64.7649 36.875C63.8782 37.295 62.8632 37.505 61.7199 37.505C61.0199 37.505 60.3549 37.3883 59.7249 37.155C59.1182 36.9217 58.6282 36.6067 58.2549 36.21C58.6515 36.3267 59.1415 36.455 59.7249 36.595C60.3315 36.735 60.9849 36.805 61.6849 36.805C62.9449 36.805 64.0532 36.4783 65.0099 35.825C65.9899 35.195 66.8299 34.39 67.5299 33.41L68.0199 33.48C68.5565 32.5467 68.9299 31.5433 69.1399 30.47C69.3732 29.42 69.4899 28.3117 69.4899 27.145C69.4899 26.3517 69.4549 25.5467 69.3849 24.73C69.3149 23.9133 69.2215 23.085 69.1049 22.245L68.9299 22.49C69.0465 23.3067 69.1282 24.1117 69.1749 24.905C69.2449 25.675 69.2799 26.4333 69.2799 27.18C69.2799 28.1133 69.1865 29.035 68.9999 29.945C68.8132 30.8783 68.5215 31.73 68.1249 32.5C68.5215 31.6833 68.8015 30.8083 68.9649 29.875C69.1282 28.965 69.2099 27.985 69.2099 26.935C69.0932 26.3283 69.0349 25.7217 69.0349 25.115C69.0349 24.5083 69.0115 23.9017 68.9649 23.295L68.8949 22.595C68.7315 22.8283 68.4865 23.155 68.1599 23.575C67.8332 23.995 67.4482 24.415 67.0049 24.835C66.5615 25.2317 66.0599 25.5817 65.4999 25.885C64.9632 26.1883 64.3915 26.34 63.7849 26.34L62.9099 26.445C61.6732 26.445 60.5649 26.13 59.5849 25.5C58.6049 24.87 57.7649 24.0767 57.0649 23.12C56.3649 22.14 55.8282 21.0783 55.4549 19.935C55.0815 18.7683 54.8949 17.6483 54.8949 16.575C54.8715 16.4583 54.8599 16.365 54.8599 16.295V15.98C54.8599 14.5567 55.1165 13.3317 55.6299 12.305C56.1432 11.255 56.8432 10.4033 57.7299 9.75C58.6399 9.09667 59.7015 8.61833 60.9149 8.315C62.1282 7.98833 63.4349 7.825 64.8349 7.825C66.4682 7.825 68.1249 8.04667 69.8049 8.49C69.6649 8.53667 69.5949 8.61833 69.5949 8.735C69.5949 8.82833 69.6065 8.92167 69.6299 9.015C69.6765 9.085 69.6999 9.16667 69.6999 9.26V9.33C69.6299 9.44667 69.4665 9.505 69.2099 9.505C68.9532 9.505 68.5799 9.47 68.0899 9.4C67.5999 9.33 66.9115 9.23667 66.0249 9.12V9.54C66.8182 9.63333 67.4949 9.785 68.0549 9.995C68.6149 10.1817 69.0699 10.3917 69.4199 10.625C69.7699 10.8583 70.0149 11.08 70.1549 11.29C70.3182 11.5 70.3999 11.675 70.3999 11.815C70.3999 11.9083 70.3415 11.9783 70.2249 12.025C70.1315 12.0483 70.0265 12.06 69.9099 12.06C69.6532 12.06 69.1865 12.0133 68.5099 11.92C67.8565 11.8267 67.0282 11.78 66.0249 11.78C65.0682 11.78 64.1699 11.8383 63.3299 11.955C62.4899 12.0717 61.7549 12.2933 61.1249 12.62C60.5182 12.9467 60.0399 13.4017 59.6899 13.985C59.3399 14.5683 59.1649 15.3267 59.1649 16.26C59.1649 17.03 59.2815 17.765 59.5149 18.465C59.7715 19.165 60.0749 19.7833 60.4249 20.32C60.7982 20.8567 61.2065 21.2883 61.6499 21.615C62.0932 21.9183 62.5249 22.07 62.9449 22.07C63.2249 22.07 63.5632 21.8717 63.9599 21.475C64.3799 21.0783 64.8115 20.5883 65.2549 20.005C65.7215 19.4217 66.1649 18.8033 66.5849 18.15C67.0049 17.4967 67.3665 16.9133 67.6699 16.4L68.6499 16.68ZM67.3899 23.715C67.1565 23.9483 66.8999 24.205 66.6199 24.485C66.3399 24.7417 66.0249 24.9867 65.6749 25.22C65.3482 25.43 64.9749 25.6283 64.5549 25.815C64.1349 25.9783 63.6799 26.0833 63.1899 26.13L63.4349 26.235C64.1349 26.1417 64.7765 25.9433 65.3599 25.64C65.9432 25.3133 66.4565 24.94 66.8999 24.52C67.3665 24.1 67.7749 23.6683 68.1249 23.225C68.4749 22.7817 68.7782 22.3967 69.0349 22.07L68.9649 21.65C68.7549 21.9533 68.4982 22.2917 68.1949 22.665C67.9149 23.0383 67.6465 23.3883 67.3899 23.715ZM69.9449 27.11C69.9449 28.1367 69.8399 29.14 69.6299 30.12C69.4199 31.0533 69.1282 31.9283 68.7549 32.745C69.1515 31.905 69.4665 30.9833 69.6999 29.98C69.9565 28.9533 70.0849 27.9033 70.0849 26.83C70.0849 26.2933 70.0615 25.745 70.0149 25.185C69.9915 24.625 69.9565 24.065 69.9099 23.505L69.7349 21.44L69.5599 21.65C69.6532 22.56 69.7349 23.47 69.8049 24.38C69.8982 25.29 69.9449 26.2 69.9449 27.11ZM72.5349 26.9C72.5349 25.6633 72.4765 24.4617 72.3599 23.295C72.2665 22.1283 72.1499 20.9733 72.0099 19.83C72.1032 20.9033 72.2082 21.9767 72.3249 23.05C72.4415 24.1 72.4999 25.185 72.4999 26.305C72.4999 27.075 72.4532 27.8917 72.3599 28.755C72.2899 29.595 72.1499 30.435 71.9399 31.275C71.7299 32.115 71.4382 32.9317 71.0649 33.725C70.7149 34.4717 70.2715 35.1717 69.7349 35.825C70.6682 34.7517 71.3332 33.5383 71.7299 32.185C72.1499 30.785 72.4182 29.3967 72.5349 28.02V26.9ZM87.0112 17.87C87.0112 18.4067 87.0929 18.9317 87.2562 19.445C87.4195 19.9583 87.5945 20.4717 87.7812 20.985C87.9912 21.475 88.1779 21.9883 88.3412 22.525C88.5045 23.0617 88.5862 23.61 88.5862 24.17C88.5862 25.1267 88.3995 25.9667 88.0262 26.69C87.6762 27.4133 87.1979 28.02 86.5912 28.51C85.9845 29 85.2729 29.3733 84.4562 29.63C83.6629 29.8867 82.8229 30.015 81.9362 30.015C81.7495 30.015 81.5395 29.98 81.3062 29.91C81.0962 29.8633 80.9445 29.7467 80.8512 29.56L80.8862 29.42C81.4695 29.3733 82.0412 29.315 82.6012 29.245C83.1145 29.1983 83.6279 29.105 84.1412 28.965C83.6512 29.0817 83.1495 29.1517 82.6362 29.175C82.0995 29.2217 81.5512 29.245 80.9912 29.245L81.0612 28.895L80.9912 28.65C80.9212 28.6733 80.8279 28.685 80.7112 28.685H80.3262C79.9529 28.685 79.5795 28.6383 79.2062 28.545C78.8562 28.4517 78.6812 28.2417 78.6812 27.915C78.6812 27.6117 78.8445 27.3667 79.1712 27.18C79.5212 26.9933 79.8129 26.8533 80.0462 26.76C80.5829 26.8767 81.1312 26.935 81.6912 26.935C82.1345 26.935 82.5779 26.9 83.0212 26.83C83.4645 26.7367 83.8612 26.585 84.2112 26.375C84.5612 26.165 84.8412 25.8967 85.0512 25.57C85.2845 25.22 85.4012 24.7883 85.4012 24.275C85.4012 23.715 85.3195 23.1783 85.1562 22.665C84.9929 22.1283 84.8062 21.6033 84.5962 21.09C84.4095 20.5767 84.2345 20.0517 84.0712 19.515C83.9079 18.9783 83.8262 18.4183 83.8262 17.835V17.555C83.8262 17.4617 83.8379 17.3567 83.8612 17.24L83.7562 17.205L83.7212 17.73C83.7212 18.3133 83.8029 18.885 83.9662 19.445C84.1529 19.9817 84.3395 20.5183 84.5262 21.055C84.7362 21.5917 84.9229 22.1283 85.0862 22.665C85.2729 23.2017 85.3662 23.75 85.3662 24.31C85.3662 24.8467 85.2612 25.2667 85.0512 25.57C84.8412 25.85 84.5612 26.0717 84.2112 26.235C83.8845 26.3983 83.5112 26.5033 83.0912 26.55C82.6945 26.5733 82.2862 26.585 81.8662 26.585C81.6562 26.585 81.4462 26.585 81.2362 26.585C81.0262 26.5617 80.8162 26.5383 80.6062 26.515C80.9329 26.3983 81.3179 26.305 81.7612 26.235C82.2279 26.165 82.6712 26.06 83.0912 25.92C83.5112 25.78 83.8729 25.5933 84.1762 25.36C84.4795 25.1033 84.6312 24.73 84.6312 24.24H85.0162L84.7012 22.77C84.5845 22.7 84.4445 22.4317 84.2812 21.965C84.1179 21.4983 83.9545 20.985 83.7912 20.425C83.6279 19.865 83.4879 19.34 83.3712 18.85C83.2545 18.3367 83.1962 17.9983 83.1962 17.835V17.415C83.1962 17.275 83.2195 17.1467 83.2662 17.03L83.0562 16.925C83.0329 17.0417 83.0095 17.17 82.9862 17.31C82.9862 17.45 82.9862 17.5783 82.9862 17.695C82.9862 18.1617 83.0329 18.6167 83.1262 19.06C83.2429 19.5033 83.3712 19.935 83.5112 20.355C83.6745 20.775 83.8379 21.2067 84.0012 21.65C84.1412 22.0467 84.2695 22.4433 84.3862 22.84C84.2462 22.42 84.1062 22.0117 83.9662 21.615L83.4762 20.355C83.3129 19.935 83.1729 19.515 83.0562 19.095C82.9629 18.6517 82.9162 18.185 82.9162 17.695V17.31C82.9162 17.17 82.9395 17.03 82.9862 16.89C82.0995 16.4233 81.4345 15.7933 80.9912 15C80.5712 14.2067 80.3612 13.32 80.3612 12.34C80.3612 12.0833 80.4312 11.71 80.5712 11.22C80.7112 10.73 80.8745 10.2283 81.0612 9.715C81.2712 9.20167 81.4812 8.72333 81.6912 8.28C81.9245 7.81333 82.1345 7.48667 82.3212 7.3L82.3562 7.055C82.3562 6.495 82.2862 6.05167 82.1462 5.725C82.0295 5.375 81.8545 5.10667 81.6212 4.92C81.4112 4.73333 81.1429 4.61667 80.8162 4.57C80.4895 4.5 80.1279 4.465 79.7312 4.465H79.4512L77.8412 4.5V4.36C77.8412 4.19667 77.8295 4.06833 77.8062 3.975C77.7829 3.85833 77.7712 3.765 77.7712 3.695C77.7712 3.57833 77.8412 3.49667 77.9812 3.45C78.1445 3.38 78.3195 3.33333 78.5062 3.31C78.7162 3.26333 78.9262 3.24 79.1362 3.24C79.3462 3.21666 79.5095 3.205 79.6262 3.205H79.8012L79.7662 2.82C79.6029 2.79667 79.3462 2.77333 78.9962 2.75C78.6695 2.70333 78.3312 2.63333 77.9812 2.54C77.6545 2.44667 77.3629 2.33 77.1062 2.19C76.8495 2.05 76.7212 1.86333 76.7212 1.63C76.7212 1.39666 76.8962 1.21 77.2462 1.07C77.5962 0.929999 77.9929 0.824999 78.4362 0.754999C78.9029 0.684998 79.3462 0.638331 79.7662 0.614998C80.2095 0.591665 80.5245 0.579999 80.7112 0.579999C82.6012 0.579999 84.0712 1.04667 85.1212 1.98C86.1712 2.89 86.6962 4.255 86.6962 6.075C86.6962 6.915 86.5795 7.55667 86.3462 8C86.1362 8.44333 85.8912 8.84 85.6112 9.19C85.3312 9.54 85.0745 9.91333 84.8412 10.31C84.6312 10.6833 84.5262 11.22 84.5262 11.92C84.5262 12.2 84.5729 12.4917 84.6662 12.795C84.7595 13.075 84.9345 13.3433 85.1912 13.6C85.4479 13.8333 85.8095 14.0433 86.2762 14.23C86.7429 14.3933 87.3612 14.4867 88.1312 14.51L88.3412 17.87H87.0112ZM80.7112 14.02C80.8045 14.3 80.9679 14.5917 81.2012 14.895C81.4579 15.1983 81.7379 15.49 82.0412 15.77C82.3679 16.05 82.6945 16.3067 83.0212 16.54C83.3712 16.75 83.6862 16.9133 83.9662 17.03L84.0362 16.75C83.7795 16.61 83.4879 16.435 83.1612 16.225C82.8345 16.015 82.5079 15.7817 82.1812 15.525C81.8779 15.2683 81.6095 15 81.3762 14.72C81.1429 14.44 80.9795 14.16 80.8862 13.88L80.8512 14.09L80.7112 14.02ZM88.0612 17.275L86.5912 17.17L88.0612 17.555V17.275Z" fill="black"/>
</svg>
