<svg width="101" height="45" viewBox="0 0 101 45" fill="none" xmlns="http://www.w3.org/2000/svg">
<path d="M11.7207 38.125C9.24674 37.7995 7.35872 37.1647 6.05664 36.2207C4.78711 35.3092 4.15234 33.763 4.15234 31.582C4.15234 30.9961 4.25 30.0521 4.44531 28.75C4.64062 27.3828 4.73828 26.276 4.73828 25.4297C4.73828 24.0299 4.41276 22.9395 3.76172 22.1582C3.14323 21.3444 2.16667 20.8236 0.832031 20.5957V18.1543C2.16667 17.9264 3.14323 17.4219 3.76172 16.6406C4.41276 15.8268 4.73828 14.7201 4.73828 13.3203C4.73828 12.474 4.64062 11.3672 4.44531 10C4.38021 9.51172 4.3151 9.02344 4.25 8.53516C4.1849 8.04688 4.15234 7.59115 4.15234 7.16797C4.15234 5.67057 4.46159 4.48242 5.08008 3.60352C5.73112 2.69206 6.59375 2.02474 7.66797 1.60156C8.74219 1.17839 10.0931 0.852865 11.7207 0.625L12.0625 2.43164C10.5977 2.69206 9.45833 3.0013 8.64453 3.35938C7.83073 3.71745 7.22852 4.17318 6.83789 4.72656C6.47982 5.27995 6.30078 6.02865 6.30078 6.97266C6.30078 7.39583 6.31706 7.83529 6.34961 8.29102C6.41471 8.71419 6.47982 9.15365 6.54492 9.60938C6.77279 10.8138 6.88672 11.9857 6.88672 13.125C6.88672 14.9805 6.5612 16.3639 5.91016 17.2754C5.25911 18.1868 4.23372 18.8867 2.83398 19.375C4.23372 19.8633 5.25911 20.5632 5.91016 21.4746C6.5612 22.3861 6.88672 23.7695 6.88672 25.625C6.88672 26.7643 6.77279 27.9362 6.54492 29.1406C6.47982 29.5964 6.41471 30.0521 6.34961 30.5078C6.31706 30.931 6.30078 31.3542 6.30078 31.7773C6.30078 32.7214 6.47982 33.4701 6.83789 34.0234C7.22852 34.5768 7.83073 35.0326 8.64453 35.3906C9.45833 35.7487 10.5977 36.0579 12.0625 36.3184L11.7207 38.125ZM27.4336 16.2988L27.3359 13.125H29.5332L29.7773 15.2246V35H27.4336V16.2988ZM34.9531 18.0078C34.9531 17.0964 34.7741 16.3965 34.416 15.9082C34.0905 15.4199 33.5371 15.1758 32.7559 15.1758C32.1374 15.1758 31.5514 15.306 30.998 15.5664C30.4772 15.8268 29.9727 16.2174 29.4844 16.7383L28.5566 15.6152C29.2728 14.7689 29.9889 14.1341 30.7051 13.7109C31.4538 13.2552 32.2676 13.0273 33.1465 13.0273C34.2533 13.0273 35.1159 13.3203 35.7344 13.9062C36.3854 14.4922 36.8411 15.2572 37.1016 16.2012H37.2969V35H34.9531V18.0078ZM42.4727 18.0078C42.4727 17.0964 42.2936 16.3965 41.9355 15.9082C41.61 15.4199 41.0566 15.1758 40.2754 15.1758C39.6569 15.1758 39.071 15.306 38.5176 15.5664C37.9967 15.8268 37.4922 16.2174 37.0039 16.7383L35.9297 15.3711C36.6458 14.5898 37.362 14.0039 38.0781 13.6133C38.8268 13.2227 39.6569 13.0273 40.5684 13.0273C41.9355 13.0273 42.9772 13.4342 43.6934 14.248C44.4421 15.0618 44.8164 16.25 44.8164 17.8125V35H42.4727V18.0078ZM64.9238 44.5703C63.9473 44.5703 63.0358 44.5052 62.1895 44.375C61.3757 44.2773 60.513 44.1146 59.6016 43.8867L59.7969 41.9336C61.6523 42.3242 63.2799 42.5195 64.6797 42.5195C66.763 42.5195 68.2279 42.1126 69.0742 41.2988C69.9206 40.485 70.3438 39.1341 70.3438 37.2461V16.7383L70.2949 15.5176L70.5391 13.125H72.6387L72.541 16.25V37.3926C72.541 39.834 71.8737 41.6406 70.5391 42.8125C69.237 43.9844 67.3652 44.5703 64.9238 44.5703ZM65.1191 35.3906C61.9616 35.3906 59.7318 34.3001 58.4297 32.1191C57.1602 29.9056 56.5254 27.2201 56.5254 24.0625C56.5254 22.1094 56.7695 20.2865 57.2578 18.5938C57.7786 16.901 58.6738 15.5013 59.9434 14.3945C61.2129 13.2878 62.9382 12.7344 65.1191 12.7344C66.4212 12.7344 67.5605 13.0111 68.5371 13.5645C69.5137 14.0853 70.5553 14.8828 71.6621 15.957L70.6367 17.1777C69.7578 16.3965 68.8626 15.8105 67.9512 15.4199C67.0723 14.9967 66.1283 14.7852 65.1191 14.7852C63.7194 14.7852 62.5801 15.1432 61.7012 15.8594C60.8223 16.543 60.1712 17.5684 59.748 18.9355C59.3574 20.3027 59.1621 22.0117 59.1621 24.0625C59.1621 26.1133 59.3574 27.8223 59.748 29.1895C60.1712 30.5566 60.8223 31.5983 61.7012 32.3145C62.5801 32.998 63.7194 33.3398 65.1191 33.3398C66.1283 33.3398 67.0723 33.1445 67.9512 32.7539C68.8626 32.3307 69.7578 31.7285 70.6367 30.9473L71.6621 32.168C70.5553 33.2422 69.5137 34.056 68.5371 34.6094C67.5605 35.1302 66.4212 35.3906 65.1191 35.3906ZM88.9375 36.3184C90.4023 36.0579 91.5417 35.7487 92.3555 35.3906C93.1693 35.0326 93.7552 34.5768 94.1133 34.0234C94.5039 33.4701 94.6992 32.7214 94.6992 31.7773C94.6992 31.3542 94.6667 30.931 94.6016 30.5078C94.569 30.0521 94.5202 29.5964 94.4551 29.1406C94.2272 27.9362 94.1133 26.7643 94.1133 25.625C94.1133 23.7695 94.4388 22.3861 95.0898 21.4746C95.7409 20.5632 96.7663 19.8633 98.166 19.375C96.7663 18.8867 95.7409 18.1868 95.0898 17.2754C94.4388 16.3639 94.1133 14.9805 94.1133 13.125C94.1133 11.9857 94.2272 10.8138 94.4551 9.60938C94.5202 9.15365 94.569 8.71419 94.6016 8.29102C94.6667 7.83529 94.6992 7.39583 94.6992 6.97266C94.6992 6.02865 94.5039 5.27995 94.1133 4.72656C93.7552 4.17318 93.1693 3.71745 92.3555 3.35938C91.5417 3.0013 90.4023 2.69206 88.9375 2.43164L89.2793 0.625C91.7533 0.950521 93.625 1.58529 94.8945 2.5293C96.1966 3.44076 96.8477 4.98698 96.8477 7.16797C96.8477 7.75391 96.75 8.69792 96.5547 10C96.3594 11.3672 96.2617 12.474 96.2617 13.3203C96.2617 14.7201 96.571 15.8268 97.1895 16.6406C97.8405 17.4219 98.8333 17.9264 100.168 18.1543V20.5957C98.8333 20.8236 97.8405 21.3444 97.1895 22.1582C96.571 22.9395 96.2617 24.0299 96.2617 25.4297C96.2617 26.276 96.3594 27.3828 96.5547 28.75C96.6198 29.2383 96.6849 29.7266 96.75 30.2148C96.8151 30.7031 96.8477 31.1589 96.8477 31.582C96.8477 33.0794 96.5221 34.2676 95.8711 35.1465C95.2526 36.0579 94.4062 36.7253 93.332 37.1484C92.2578 37.5716 90.9069 37.8971 89.2793 38.125L88.9375 36.3184Z" fill="black"/>
</svg>
