<svg width="33" height="32" viewBox="0 0 33 32" fill="none" xmlns="http://www.w3.org/2000/svg">
<rect width="32" height="32" fill="#FEFEFE"/>
<path d="M5.12988 20.9375C4.27051 20.8301 3.61621 20.6348 3.16699 20.3516C2.72754 20.0684 2.50781 19.5898 2.50781 18.916C2.50781 18.75 2.53711 18.4912 2.5957 18.1396C2.6543 17.749 2.68359 17.4316 2.68359 17.1875C2.68359 16.8359 2.58594 16.5625 2.39062 16.3672C2.20508 16.1621 1.91211 16.0254 1.51172 15.957V14.668C1.91211 14.5996 2.20508 14.4678 2.39062 14.2725C2.58594 14.0674 2.68359 13.7891 2.68359 13.4375C2.68359 13.1934 2.6543 12.876 2.5957 12.4854C2.57617 12.3584 2.55664 12.2266 2.53711 12.0898C2.51758 11.9531 2.50781 11.8262 2.50781 11.709C2.50781 11.25 2.61523 10.8838 2.83008 10.6104C3.05469 10.3369 3.35254 10.1318 3.72363 9.99512C4.09473 9.8584 4.56348 9.75586 5.12988 9.6875L5.27637 10.5225C4.81738 10.6104 4.46094 10.6982 4.20703 10.7861C3.96289 10.874 3.78223 10.9912 3.66504 11.1377C3.55762 11.2744 3.50391 11.4648 3.50391 11.709C3.50391 11.8359 3.50879 11.958 3.51855 12.0752C3.53809 12.1924 3.55762 12.3145 3.57715 12.4414C3.64551 12.8027 3.67969 13.1348 3.67969 13.4375C3.67969 13.9941 3.5625 14.4092 3.32812 14.6826C3.09375 14.9561 2.73242 15.166 2.24414 15.3125C2.73242 15.459 3.09375 15.6689 3.32812 15.9424C3.5625 16.2158 3.67969 16.6309 3.67969 17.1875C3.67969 17.4902 3.64551 17.8223 3.57715 18.1836C3.55762 18.3105 3.53809 18.4326 3.51855 18.5498C3.50879 18.667 3.50391 18.7891 3.50391 18.916C3.50391 19.1602 3.55762 19.3555 3.66504 19.502C3.78223 19.6387 3.96289 19.751 4.20703 19.8389C4.46094 19.9268 4.81738 20.0146 5.27637 20.1025L5.12988 20.9375ZM9.49219 14.3896L9.46289 13.4375H10.2686L10.4297 14.375V20H9.49219V14.3896ZM11.7188 15.1367C11.7188 14.8633 11.6748 14.6631 11.5869 14.5361C11.499 14.3994 11.3428 14.3311 11.1182 14.3311C11.001 14.3311 10.8691 14.3604 10.7227 14.4189C10.5762 14.4678 10.4639 14.5312 10.3857 14.6094L10.21 14.0527C10.2979 13.877 10.4395 13.7256 10.6348 13.5986C10.8301 13.4619 11.0596 13.3936 11.3232 13.3936C11.626 13.3936 11.8701 13.4766 12.0557 13.6426C12.2412 13.8086 12.3877 14.0527 12.4951 14.375H12.6562V20H11.7188V15.1367ZM13.9453 15.1514C13.9453 14.8779 13.9014 14.6777 13.8135 14.5508C13.7256 14.4141 13.5742 14.3457 13.3594 14.3457C13.2227 14.3457 13.0811 14.3701 12.9346 14.4189C12.7979 14.4678 12.6855 14.5312 12.5977 14.6094L12.2168 13.9648C12.373 13.7891 12.5586 13.6523 12.7734 13.5547C12.9883 13.457 13.208 13.4082 13.4326 13.4082C13.8721 13.4082 14.2236 13.5498 14.4873 13.833C14.751 14.1064 14.8828 14.5264 14.8828 15.0928V20H13.9453V15.1514ZM20.7979 22.8711C20.5049 22.8711 20.207 22.8516 19.9043 22.8125C19.6113 22.7734 19.3184 22.7197 19.0254 22.6514L19.1719 21.8018C19.6016 21.8896 20.1387 21.9336 20.7832 21.9336C21.3203 21.9336 21.6816 21.8359 21.8672 21.6406C22.0625 21.4551 22.1602 21.1475 22.1602 20.7178V14.624L22.2188 14.3896L22.3506 13.4375H23.2441L23.2148 14.375V20.5273C23.2148 21.3477 23 21.9434 22.5703 22.3145C22.1406 22.6855 21.5498 22.8711 20.7979 22.8711ZM20.6367 20.1172C19.8262 20.1172 19.2158 19.8047 18.8057 19.1797C18.4053 18.5547 18.2051 17.7344 18.2051 16.7188C18.2051 16.0547 18.293 15.4688 18.4688 14.9609C18.6445 14.4531 18.9131 14.0527 19.2744 13.7598C19.6455 13.4668 20.1045 13.3203 20.6514 13.3203C21.2959 13.3203 21.7988 13.4961 22.1602 13.8477C22.5312 14.1992 22.7754 14.7119 22.8926 15.3857L22.4531 15.5762C22.3457 15.1074 22.1455 14.7705 21.8525 14.5654C21.5693 14.3604 21.208 14.2578 20.7686 14.2578C20.417 14.2578 20.1387 14.3359 19.9336 14.4922C19.7285 14.6387 19.5771 14.8877 19.4795 15.2393C19.3916 15.5908 19.3477 16.084 19.3477 16.7188C19.3477 17.3438 19.3916 17.8369 19.4795 18.1982C19.5771 18.5498 19.7285 18.8037 19.9336 18.96C20.1387 19.1064 20.417 19.1797 20.7686 19.1797C21.1982 19.1797 21.5547 19.0771 21.8379 18.8721C22.1309 18.667 22.3359 18.335 22.4531 17.876L22.8779 18.0664C22.7607 18.7305 22.5166 19.2383 22.1455 19.5898C21.7842 19.9414 21.2812 20.1172 20.6367 20.1172ZM27.7236 20.1025C28.1826 20.0146 28.5342 19.9268 28.7783 19.8389C29.0322 19.751 29.2129 19.6387 29.3203 19.502C29.4375 19.3555 29.4961 19.1602 29.4961 18.916C29.4961 18.7891 29.4863 18.667 29.4668 18.5498C29.457 18.4326 29.4424 18.3105 29.4229 18.1836C29.3545 17.8223 29.3203 17.4902 29.3203 17.1875C29.3203 16.6309 29.4375 16.2158 29.6719 15.9424C29.9062 15.6689 30.2676 15.459 30.7559 15.3125C30.2676 15.166 29.9062 14.9561 29.6719 14.6826C29.4375 14.4092 29.3203 13.9941 29.3203 13.4375C29.3203 13.1348 29.3545 12.8027 29.4229 12.4414C29.4424 12.3145 29.457 12.1924 29.4668 12.0752C29.4863 11.958 29.4961 11.8359 29.4961 11.709C29.4961 11.4648 29.4375 11.2744 29.3203 11.1377C29.2129 10.9912 29.0322 10.874 28.7783 10.7861C28.5342 10.6982 28.1826 10.6104 27.7236 10.5225L27.8701 9.6875C28.7295 9.79492 29.3789 9.99023 29.8184 10.2734C30.2676 10.5566 30.4922 11.0352 30.4922 11.709C30.4922 11.875 30.4629 12.1338 30.4043 12.4854C30.3457 12.876 30.3164 13.1934 30.3164 13.4375C30.3164 13.7891 30.4092 14.0674 30.5947 14.2725C30.79 14.4678 31.0879 14.5996 31.4883 14.668V15.957C31.0879 16.0254 30.79 16.1621 30.5947 16.3672C30.4092 16.5625 30.3164 16.8359 30.3164 17.1875C30.3164 17.4316 30.3457 17.749 30.4043 18.1396C30.4238 18.2666 30.4434 18.3984 30.4629 18.5352C30.4824 18.6719 30.4922 18.7988 30.4922 18.916C30.4922 19.375 30.3799 19.7412 30.1553 20.0146C29.9404 20.2881 29.6475 20.4932 29.2764 20.6299C28.9053 20.7666 28.4365 20.8691 27.8701 20.9375L27.7236 20.1025Z" fill="black"/>
</svg>
